# xmcd CD database file
#
# Track frame offsets:
#	182
#	14337
#	28750
#	43050
#	56925
#	70137
#	83800
#	94325
#	107875
#	121162
#	134537
#	147162
#	160475
#	172877
#	184132
#	194362
#	207250
#	219487
#	231900
#	243525
#	257975
#	271687
#	283350
#	298212
#
# Disc length: 4168 seconds
#
# Revision: 0
# Processed by: cddbd v1.5.2PL0 Copyright (c) Steve Scherf et al.
# Submitted via: CDex 1.51
#
DISCID=7d104618
DTITLE=John Lee Hooker - Crawling kingsnake 1948-1952
DYEAR=1995
DGENRE=Blues
TTITLE0=Boogie chillen
TTITLE1=Sally Mae
TTITLE2=Henry's swing club
TTITLE3=Alberta
TTITLE4=Hoogie Boogie
TTITLE5=Hobo blues
TTITLE6=Hastings street boogie
TTITLE7=Crawling kingsnake
TTITLE8=Momma Poppa Boogie
TTITLE9=Build myself a cave
TTITLE10=Graveyard blues
TTITLE11=Wednesday evening
TTITLE12=Canal street blues
TTITLE13=Going down highway 51
TTITLE14=Sail on, little girl, sail on
TTITLE15=21 boogie
TTITLE16=Rollin' blues
TTITLE17=Boogie chillen #2
TTITLE18=Queen bee
TTITLE19=Women in my life
TTITLE20=Tease me baby
TTITLE21=Little boy blue
TTITLE22=My daddy was a jockey
TTITLE23=How long must I be your slave
EXTD=YEAR: 1995
EXTT0=
EXTT1=
EXTT2=
EXTT3=
EXTT4=
EXTT5=
EXTT6=
EXTT7=
EXTT8=
EXTT9=
EXTT10=
EXTT11=
EXTT12=
EXTT13=
EXTT14=
EXTT15=
EXTT16=
EXTT17=
EXTT18=
EXTT19=
EXTT20=
EXTT21=
EXTT22=
EXTT23=
PLAYORDER=
